# xmcd
#
# Track frame offsets: 
#        150
#        18990
#        35718
#        50477
#        69030
#        85738
#        97782
#        115663
#        137239
#        157391
#
# Disc length: 2392 seconds
#
# Revision: 1
# Processed by: cddbd v1.5.2PL0 Copyright (c) Steve Scherf et al.
# Submitted via: ExactAudioCopy v0.99pb4
#
DISCID=7b09560a
DTITLE=КОНТРАБАНДА.COM.UA - Contrabanda.com.ua
DYEAR=2006
DGENRE=Alternative
TTITLE0=Розумієш...
TTITLE1=Тебе не тримаю
TTITLE2=Тобі я все віддаю
TTITLE3=Досить
TTITLE4=Озирнись
TTITLE5=Різдв"янна
TTITLE6=Runaway
TTITLE7=Dreaming
TTITLE8=Blues (Lullabay)
TTITLE9=Move on
EXTD=
EXTT0=
EXTT1=
EXTT2=
EXTT3=
EXTT4=
EXTT5=
EXTT6=
EXTT7=
EXTT8=
EXTT9=
PLAYORDER=
